<?xml version="1.0" encoding="utf-8"?>
<!-- Svg Vector Icons : http://www.onlinewebfonts.com/icon -->
<!DOCTYPE svg PUBLIC "-//W3C//DTD SVG 1.1//EN" "http://www.w3.org/Graphics/SVG/1.1/DTD/svg11.dtd">
<svg version="1.1" xmlns="http://www.w3.org/2000/svg" xmlns:xlink="http://www.w3.org/1999/xlink" x="0px" y="0px" viewBox="0 0 1000 1000" enable-background="new 0 0 1000 1000" xml:space="preserve">
<g><path d="M300.9,255c-25.4,0-45.9,20.6-45.9,45.9s20.6,45.9,45.9,45.9h398.1c25.4,0,45.9-20.6,45.9-45.9S724.4,255,699.1,255H300.9z M300.9,438.7c-25.4,0-45.9,20.6-45.9,45.9s20.6,45.9,45.9,45.9h398.1c25.4,0,45.9-20.6,45.9-45.9s-20.6-45.9-45.9-45.9H300.9z M300.9,622.5c-25.4,0-45.9,20.6-45.9,45.9c0,25.4,20.6,45.9,45.9,45.9h398.1c25.4,0,45.9-20.6,45.9-45.9c0-25.4-20.6-45.9-45.9-45.9H300.9z M867.5,990h15.3c25.4,0,45.9-20.6,45.9-45.9c0-25.4-20.6-45.9-45.9-45.9h-15.3H224.4c-33.8,0-61.2-27.4-61.2-61.2V163.1c0-33.8,27.4-61.3,61.2-61.3h551.2c33.8,0,61.2,27.4,61.2,61.3V745v15.3c0,25.4,20.6,45.9,45.9,45.9s45.9-20.6,45.9-45.9V745V132.5C928.7,64.8,873.9,10,806.3,10H193.8C126.1,10,71.3,64.8,71.3,132.5v735c0,67.7,54.8,122.5,122.5,122.5H867.5z"/></g>
</svg>