<svg xmlns="http://www.w3.org/2000/svg" stroke-width="4" stroke="black" viewBox="0 0 113.8 122.9"><path d="M46.5,12.6c11.8,0,30.3,0.1,42.1,0.1c1.3,0,2.6,0.1,3.9,0.4c1.2,0.2,2.4,0.6,3.6,1.1c1.1,0.5,2.2,1.1,3.3,1.8 c1,0.7,2,1.5,2.9,2.4c0.9,0.9,1.7,1.9,2.4,2.9c0.7,1,1.3,2.1,1.8,3.3c0.5,1.1,0.8,2.3,1.1,3.6c0.2,1.3,0.4,2.5,0.4,3.9v39.1 c0,1.3-0.1,2.6-0.4,3.9c-0.2,1.3-0.6,2.4-1.1,3.6c-0.5,1.1-1.1,2.2-1.8,3.3c-0.7,1-1.5,2-2.4,2.9l0,0c-1,0.9-2,1.8-3,2.4 c-1,0.7-2.1,1.3-3.2,1.8c-1.1,0.5-2.3,0.8-3.5,1.1c-1.2,0.2-2.5,0.4-3.9,0.4H73.8c-0.5,0-0.9,0.1-1.3,0.3c-0.4,0.2-0.7,0.5-1,0.8 l0,0c-1.2,1.5-2.4,3-3.7,4.5c-1.3,1.4-2.6,2.8-4.1,4.1c-1.4,1.3-2.9,2.5-4.4,3.7c-1.5,1.2-3.1,2.3-4.7,3.4c-1.5,1-3.2,2-4.9,2.9 c-1.7,0.9-3.4,1.7-5.1,2.5c-0.2,0.1-0.4,0.1-0.6,0c-0.3-0.2-0.4-0.6-0.3-0.9c0.3-0.6,0.6-1.1,0.9-1.7c0.3-0.5,0.6-1.1,0.8-1.7l0,0 c0.5-1.1,1-2.2,1.4-3.4c0.5-1.2,0.9-2.4,1.3-3.6c0.4-1.1,0.8-2.3,1.1-3.5c0.4-1.2,0.7-2.4,1-3.6c0.1-0.4,0.2-0.7,0.2-1.1 c0-0.8-0.3-1.5-0.9-2.1l0,0c-0.5-0.5-1.3-0.9-2.1-0.9H30.4c-1.3,0-2.6-0.1-3.9-0.4c-1.2-0.2-2.4-0.6-3.5-1l0,0 c-1.1-0.4-2.2-1-3.2-1.7c-1.1-0.7-2.1-1.6-3.1-2.5l0,0c-0.9-0.9-1.7-1.9-2.4-2.9c-0.7-1-1.3-2.1-1.8-3.3c-0.5-1.1-0.8-2.3-1.1-3.6 c-0.2-1.3-0.4-2.5-0.4-3.9V46.3c0-4-5.2-4-6-1.2v25.9c0,1.7,0.2,3.4,0.5,5c0.3,1.6,0.8,3.2,1.4,4.7c0.6,1.5,1.4,2.9,2.3,4.3 c0.9,1.4,2,2.7,3.2,3.9c1.2,1.2,2.5,2.3,3.9,3.2c1.3,0.9,2.8,1.7,4.3,2.3l0,0c1.5,0.6,3.1,1.1,4.7,1.4c1.6,0.3,3.3,0.5,5,0.5h12.3 c0.1,0,0.2,0,0.2,0c0.4,0.1,0.6,0.5,0.4,0.9l0,0c-0.2,0.8-0.5,1.5-0.7,2.3l0,0c-0.4,1.1-0.8,2.2-1.2,3.3c-0.4,1-0.9,2.1-1.3,3.1 c0,0.1,0,0.1,0,0.2c-0.4,1-0.9,2-1.5,3c-0.6,1-1.2,1.9-2,2.9c-0.7,0.9-1.6,1.9-2.5,2.9l0,0c-0.9,1-1.9,1.9-3,2.9 c-0.6,0.6-0.9,1.3-1,2.1c0,0.8,0.2,1.5,0.8,2.1c0.4,0.4,0.9,0.7,1.4,0.9c0.5,0.2,1.1,0.2,1.6,0c2.2-0.6,4.4-1.3,6.6-2 c2.1-0.7,4.2-1.5,6.2-2.4c2-0.9,4-1.8,5.9-2.8c1.9-1,3.7-2.1,5.5-3.3l0,0c1.8-1.1,3.5-2.4,5.1-3.7c1.7-1.3,3.2-2.7,4.8-4.1l0,0 c1.3-1.2,2.5-2.5,3.7-3.8c1.2-1.3,2.4-2.7,3.5-4.1c0.1-0.2,0.3-0.3,0.6-0.3h13c1.7,0,3.4-0.2,5-0.5c1.6-0.3,3.2-0.8,4.7-1.4l0,0 c1.5-0.6,2.9-1.4,4.3-2.3c1.4-0.9,2.7-2,3.9-3.2c1.2-1.2,2.3-2.5,3.2-3.9c0.9-1.4,1.7-2.8,2.3-4.3c0.6-1.5,1.1-3.1,1.4-4.7 c0.3-1.6,0.5-3.3,0.5-5V31.9c0-1.7-0.2-3.4-0.5-5c-0.3-1.6-0.8-3.2-1.4-4.7c-0.6-1.5-1.4-2.9-2.3-4.3c-0.9-1.4-2-2.7-3.2-3.9 c-1.2-1.2-2.5-2.3-3.9-3.2c-1.3-0.9-2.8-1.7-4.3-2.3l0,0c-1.5-0.6-3.1-1.1-4.7-1.4c-1.6-0.3-3.3-0.5-5-0.5 c-12.3,0-31.2-0.1-43.5-0.1C42.2,7.4,42,12.6,46.5,12.6L46.5,12.6L46.5,12.6z M24.3,39.2c1.9,0.6,3.8,1.2,5.7,1.8 c1.9,0.6,3.8,1.3,5.7,1.9c4.5,1.4,7,2.3,7.5,2.4c0.5,0.1,0.2-1.9-0.9-6.3l-3.6-13.7l-0.3-0.3L24.3,39.2L24.3,39.2L24.3,39.2 L24.3,39.2L24.3,39.2z M33.2,19.7L14.9,0.5C14.3,0,13.7-0.2,13,0.2L0.4,12.4c-0.5,0.6-0.6,1.3,0.1,2l18.6,19.5L33.2,19.7L33.2,19.7 L33.2,19.7z M42.1,72.9c-1.6,0-2.8-1.2-2.9-2.8c0-1.6,1.2-2.8,2.8-2.9L67,66.8l5.7-0.4c1.6-0.1,2.9,1.1,3,2.6 c0.1,1.6-1.1,2.9-2.6,3l-5.7,0.4C67.4,72.4,44.6,72.8,42.1,72.9L42.1,72.9L42.1,72.9z M51,55.1c-1.6,0-2.8-1.3-2.8-2.8 c0-1.6,1.3-2.8,2.8-2.8h35.6c1.6,0,2.8,1.3,2.8,2.8c0,1.6-1.3,2.8-2.8,2.8H51L51,55.1L51,55.1z M63.6,38.2c-1.6,0-2.8-1.3-2.8-2.8 s1.3-2.8,2.8-2.8h23c1.6,0,2.8,1.3,2.8,2.8c0,1.6-1.3,2.8-2.8,2.8H63.6L63.6,38.2L63.6,38.2z"/></svg>